<svg xmlns="http://www.w3.org/2000/svg" viewBox="0 0 512 512" id="diwali-lamp-in-hand"><path fill="#a966ff" d="M277.718 172.674H72.003a91.886 91.886 0 0 0 91.886 91.886h21.943a91.886 91.886 0 0 0 91.886-91.886Z"></path><path fill="#9c4eff" d="M247.718 172.674a91.885 91.885 0 0 1-87.857 91.793c1.336.058 2.678.093 4.028.093h21.943a91.886 91.886 0 0 0 91.886-91.886h-30Z"></path><path fill="#ffcd85" d="M349.064 265.165a41.003 41.003 0 0 0-16.188-8.066L288.22 243.14a48.81 48.81 0 0 0-14.564-2.223h-98.795v6.698a29.885 29.885 0 0 0 3.435 13.931L30.013 226.949a14.07 14.07 0 0 0-15.033 14.037 15.07 15.07 0 0 0 9.32 13.93l133.693 87.406a118.406 118.406 0 0 0 38.148 11.157q4.274.497 8.576.683l92.782 4.012s8.83.559 12.183 3.451l174.061 150.292 19.222-118.662Z"></path><path fill="#ffc570" d="m19.122 233.479 148.284 34.596a29.892 29.892 0 0 1-3.142-9.803L30.013 226.95a14.046 14.046 0 0 0-12.857 6.547 14.14 14.14 0 0 1 1.966-.017zm329.942 31.686a41.003 41.003 0 0 0-16.188-8.066L288.22 243.14a48.813 48.813 0 0 0-14.564-2.223h-98.795v6.53h87.905a48.813 48.813 0 0 1 14.563 2.223l44.657 13.959a41.003 41.003 0 0 1 16.187 8.066l129.463 107.653a40.851 40.851 0 0 1 14.033 38.933l-14.793 78.956 16.867 14.68 19.222-118.662z"></path><path fill="#ffe966" d="M172.654 146.302c19.349-12.67 51.193-39.298 45.042-66.11-1.71-7.46-6.229-13.97-11.25-19.747-13.615-15.669-26.236-32.705-31.752-53.028a126.55 126.55 0 0 1-14.642 31.75c-11.188 17.368-19.103 21.467-23.847 29.726-17.126 29.814 13.847 61.273 36.45 77.41Z"></path><path fill="#ffe236" d="M217.696 80.192c-1.711-7.46-6.229-13.97-11.25-19.747-13.615-15.669-26.236-32.705-31.752-53.028a128.383 128.383 0 0 1-7.473 19.019c6.396 12.339 15.08 23.485 24.225 34.009 5.021 5.778 9.539 12.288 11.25 19.747 5.374 23.426-18.254 46.709-37.213 60.667a155.801 155.801 0 0 0 7.171 5.443c19.349-12.67 51.193-39.298 45.042-66.11Z"></path><path fill="#ffc166" d="M172.635 146.302c11.002-7.204 29.11-22.346 25.612-37.592-.973-4.241-3.542-7.943-6.397-11.228-7.742-8.91-14.918-18.597-18.055-30.153a71.959 71.959 0 0 1-8.326 18.054c-6.362 9.875-10.862 12.206-13.56 16.902-9.738 16.953 7.874 34.842 20.726 44.017Z"></path><path fill="#ffb74e" d="M198.247 108.71c-.973-4.241-3.542-7.943-6.397-11.228-7.742-8.91-14.918-18.597-18.055-30.154a72.434 72.434 0 0 1-7.394 16.537 119.782 119.782 0 0 0 10.45 13.617c2.855 3.285 5.423 6.987 6.396 11.228 2.742 11.952-7.794 23.839-17.775 31.889a88.07 88.07 0 0 0 7.163 5.703c11.002-7.204 29.11-22.346 25.612-37.592Z"></path><path fill="#ffc570" d="m265.622 269.272-63.946-6.827a30.01 30.01 0 0 1-25.649-21.528h-1.166v6.698a30 30 0 0 0 26.815 29.83l49.03 5.235a13.484 13.484 0 0 0 14.916-13.408Z"></path><rect width="40.714" height="165.848" x="365.234" y="278.304" fill="#ffe966" rx="20.357" transform="rotate(-144.957 385.59 361.228)"></rect><path fill="#ffe236" d="M433.194 293.329a20.303 20.303 0 0 0-17.642-2.782 20.341 20.341 0 0 1 4.35 27.86l-71.83 102.466a20.248 20.248 0 0 1-10.716 7.763c.213.162.41.337.631.492a20.357 20.357 0 0 0 28.358-4.982l71.83-102.465a20.357 20.357 0 0 0-4.98-28.352Z"></path><rect width="40.714" height="165.848" x="398.568" y="301.682" fill="#ffe966" rx="20.357" transform="rotate(-144.957 418.925 384.606)"></rect><path fill="#ffe236" d="M466.528 316.7a20.303 20.303 0 0 0-17.642-2.782 20.341 20.341 0 0 1 4.35 27.86l-71.83 102.466a20.248 20.248 0 0 1-10.716 7.763c.213.161.41.336.631.491a20.357 20.357 0 0 0 28.358-4.981l71.83-102.465a20.357 20.357 0 0 0-4.98-28.352Z"></path><path fill="#313440" d="M234.853 218.7a7.5 7.5 0 1 0-7.5-7.5 7.5 7.5 0 0 0 7.5 7.5Zm-104.944 0a7.5 7.5 0 1 0-7.5-7.5 7.5 7.5 0 0 0 7.5 7.5Zm379.387 163.782-29.87-24.842 5.745-8.195a27.892 27.892 0 0 0-6.815-38.798h-.001a27.684 27.684 0 0 0-20.815-4.628c-.318.055-.632.124-.947.19a27.844 27.844 0 0 0-50.378-12.121l-1.187 1.693-43.698-36.337a48.892 48.892 0 0 0-18.821-9.46l-44.53-13.92a56.257 56.257 0 0 0-16.802-2.565h-9.179a99.549 99.549 0 0 0 20.742-60.74 7.5 7.5 0 0 0-7.5-7.5h-97.439l-.1-14.9c8.178-5.632 20.55-15.143 30.33-26.94 12.88-15.532 17.756-30.613 14.496-44.822-2.275-9.92-8.452-17.871-12.9-22.99-11.925-13.723-24.836-30.404-30.175-50.073A7.5 7.5 0 0 0 182.327 0l-.114-.001a7.501 7.501 0 0 0-7.175 5.317 119.148 119.148 0 0 1-13.77 29.872 115.7 115.7 0 0 1-15.024 18.816c-3.5 3.692-6.521 6.882-9.022 11.235-8.956 15.593-7.762 33.407 3.454 51.519 9.157 14.787 22.958 26.633 32.024 33.443l.1 15.058H79.52a7.5 7.5 0 0 0-7.5 7.5 98.642 98.642 0 0 0 19.506 59.166l-52.292-12.2a7.466 7.466 0 0 0-1.239-.181c-.486-.03-.973-.045-1.445-.045A21.585 21.585 0 0 0 15 241.069a22.5 22.5 0 0 0 13.247 20.555l133.158 87.063a7.67 7.67 0 0 0 .823.466 125.872 125.872 0 0 0 40.569 11.856c3.015.348 6.077.595 9.119.733l92.697 4.006c2.621.176 6.602.961 7.756 1.7l26.432 22.805-4.415 6.299a27.867 27.867 0 0 0 22.75 43.855 28.19 28.19 0 0 0 4.88-.428c.318-.055.632-.124.947-.19a27.84 27.84 0 0 0 27.509 23.996 28.188 28.188 0 0 0 4.879-.428 27.641 27.641 0 0 0 16.778-9.854l65.691 56.676a7.5 7.5 0 1 0 9.8-11.358l-66.778-57.611 49.945-71.246 28.917 24.052a7.5 7.5 0 0 0 9.592-11.534Zm-356.37-283.85a29.659 29.659 0 0 0-2.337 5.143c-5.672-11.421-5.781-21.628-.36-31.065 1.61-2.804 3.83-5.147 6.903-8.388a130.392 130.392 0 0 0 16.746-21.01 131.711 131.711 0 0 0 8.338-15.027c7.104 14.268 16.876 26.56 26.09 37.162 5.39 6.202 8.441 11.447 9.6 16.503 1.72 7.496-.564 15.503-5.33 23.383a36.051 36.051 0 0 0-7.544-12.69c-6.54-7.526-13.614-16.644-16.478-27.198a7.5 7.5 0 0 0-14.414-.216 64.45 64.45 0 0 1-7.456 16.174 62.965 62.965 0 0 1-8.171 10.228 36.107 36.107 0 0 0-5.587 7Zm13.007 7.472a24.268 24.268 0 0 1 3.467-4.156 77.939 77.939 0 0 0 9.894-12.422q1.094-1.697 2.102-3.457a119.78 119.78 0 0 0 12.313 16.412c2.704 3.114 4.213 5.65 4.748 7.988 1.934 8.427-7.763 18.983-18.084 26.626-7.69-6.32-21.014-19.548-14.44-30.991Zm-78.587 74.155h190.058a84.562 84.562 0 0 1-25.506 53.24h-69.517a7.5 7.5 0 0 0-7.5 7.5v6.698c0 1.255.065 2.496.185 3.72l-57.044-13.312a85.937 85.937 0 0 1-6.289-5.678 83.755 83.755 0 0 1-24.387-52.168Zm234.753 175.77c-4.88-4.208-13.943-5.087-16.604-5.256a8.34 8.34 0 0 0-.151-.007l-92.765-4.01c-2.678-.12-5.389-.339-8.053-.648a110.82 110.82 0 0 1-35.315-10.24L35.925 248.722a7.453 7.453 0 0 0-1.241-.655A7.55 7.55 0 0 1 30 241.07a6.567 6.567 0 0 1 6.537-6.57l76.399 17.824c.061.015.122.029.183.04l67.844 15.834a37.41 37.41 0 0 0 27.437 16.788l63.947 6.827a7.73 7.73 0 0 0 .804.043 7.5 7.5 0 0 0 .787-14.959l-63.946-6.827a22.447 22.447 0 0 1-17.402-11.658 7.422 7.422 0 0 0-.223-.423 22.44 22.44 0 0 1-2.472-9.489h91.282a41.265 41.265 0 0 1 12.326 1.882l40.106 12.536a7.478 7.478 0 0 0 2.748 1.07c.67.116 1.38.263 2.104.434l.12.031a33.666 33.666 0 0 1 13.204 6.564l44.604 37.088-48.934 69.804Zm51.55 55.444-.067.096-5.857 8.355a12.857 12.857 0 0 1-21.056-14.762l8.247-11.765q.07-.096.138-.195l57.576-82.134c.046-.064.093-.127.136-.192l5.732-8.178a12.774 12.774 0 0 1 8.304-5.284 13.017 13.017 0 0 1 2.25-.197 12.863 12.863 0 0 1 10.502 20.241l-.003.004-.002.003Zm99.239-70.637-9.795 13.972-62.035 88.493a12.857 12.857 0 1 1-21.055-14.761l.003-.004.002-.003 5.988-8.543.07-.098 58.042-82.8.03-.042 7.695-10.977a12.774 12.774 0 0 1 8.302-5.281 13.037 13.037 0 0 1 2.252-.197 12.861 12.861 0 0 1 10.5 20.24ZM199.872 218.699a7.5 7.5 0 1 0-7.5-7.5 7.5 7.5 0 0 0 7.5 7.5Zm-34.982 0a7.5 7.5 0 1 0-7.5-7.5 7.5 7.5 0 0 0 7.5 7.5Z"></path></svg>